<?xml version="1.0" encoding="iso-8859-1"?>
<!-- Uploaded to: SVG Repo, www.svgrepo.com, Generator: SVG Repo Mixer Tools -->
<svg height="800px" width="800px" version="1.1" id="Layer_1" xmlns="http://www.w3.org/2000/svg" xmlns:xlink="http://www.w3.org/1999/xlink" 
	 viewBox="0 0 512 512" xml:space="preserve">
<g transform="translate(1 1)">
	<path style="fill:#FCC309;" d="M492.342,502.322H286.675c-8.678,0-13.017-8.678-9.546-16.488l102.4-176.163
		c4.339-6.942,14.753-6.942,18.224,0l102.4,176.163C505.359,493.644,500.153,502.322,492.342,502.322"/>
	<path style="fill:#FFDD09;" d="M274.525,485.834l106.739-176.163c3.471-6.942,13.017-6.942,16.488,0l35.58,71.159
		c26.034-39.919,34.712-76.366,34.712-130.169c0-134.508-97.193-242.983-216.949-242.983S34.146,116.153,34.146,250.661
		s97.193,242.983,216.949,242.983c7.81,0,14.753,0,21.695-0.868C272.79,490.173,273.658,488.437,274.525,485.834"/>
	<path style="fill:#FFFFFF;" d="M8.112,250.661c0,134.508,108.475,242.983,242.983,242.983
		c-119.756,0-216.949-108.475-216.949-242.983S131.339,7.678,251.095,7.678C116.586,7.678,8.112,116.153,8.112,250.661"/>
	<path style="fill:#FD9808;" d="M251.095,7.678c119.756,0,216.949,108.475,216.949,242.983c0,45.993-11.281,88.515-31.241,124.963
		l10.414,18.224c29.505-39.919,46.861-89.383,46.861-143.186C494.078,116.153,385.603,7.678,251.095,7.678"/>
	<path d="M492.342,511H286.675c-6.942,0-13.017-3.471-16.488-9.546c-3.471-6.075-3.471-13.017,0-19.092l102.4-177.031
		c3.471-6.075,9.546-9.546,16.488-9.546l0,0c6.942,0,13.017,3.471,16.488,9.546l102.4,176.163c3.471,6.075,3.471,13.017,0,19.092
		C505.359,507.529,499.285,511,492.342,511z M389.075,313.142c-0.868,0-0.868,0-1.736,0.868l-102.4,176.163
		c-0.868,0.868,0,1.736,0,1.736c0,0.868,0.868,0.868,1.736,0.868h205.668c0.868,0,1.736-0.868,1.736-0.868s0.868-0.868,0-1.736
		L390.81,314.01C390.81,313.142,389.942,313.142,389.075,313.142z"/>
	<path d="M389.942,441.576c-5.207,0-8.678-3.471-8.678-8.678v-69.424c0-5.207,3.471-8.678,8.678-8.678
		c5.207,0,8.678,3.471,8.678,8.678v69.424C398.62,438.105,395.149,441.576,389.942,441.576z"/>
	<path d="M251.095,502.322c-5.207,0-8.678-3.471-8.678-8.678V7.678c0-5.207,3.471-8.678,8.678-8.678
		c5.207,0,8.678,3.471,8.678,8.678v485.966C259.773,498.851,256.302,502.322,251.095,502.322z"/>
	<path d="M251.095,502.322c-0.868,0-2.603,0-3.471,0h-5.207l-2.603-1.736c-75.498-61.614-118.888-152.732-118.888-249.925
		S164.315,62.349,239.814,0.736L242.417-1h5.207c0.868,0,2.603,0,3.471,0c5.207,0,8.678,3.471,8.678,8.678s-3.471,8.678-8.678,8.678
		c-0.868,0-1.736,0-2.603,0c-70.292,58.142-110.21,143.186-110.21,234.305s39.919,176.163,110.21,234.305c0.868,0,1.736,0,2.603,0
		c5.207,0,8.678,3.471,8.678,8.678S256.302,502.322,251.095,502.322z"/>
	<path d="M251.095,146.525c-65.085,0-127.566-19.092-181.369-55.539c-3.471-3.471-4.339-8.678-1.736-12.149
		c2.603-4.339,7.81-5.207,12.149-2.603c50.332,34.712,110.21,52.936,170.956,52.936s120.624-18.224,170.956-52.936
		c4.339-2.603,9.546-1.736,12.149,2.603c2.603,4.339,1.736,9.546-2.603,12.149C378.661,127.434,316.18,146.525,251.095,146.525z"/>
	<path d="M69.725,421.617c-2.603,0-5.207-0.868-6.942-3.471c-2.603-3.471-1.736-9.546,1.736-12.149
		c55.539-39.051,119.756-59.878,186.576-59.878c5.207,0,8.678,3.471,8.678,8.678c0,5.207-3.471,8.678-8.678,8.678
		c-63.349,0-124.095,19.092-176.163,56.407C73.197,420.749,71.461,421.617,69.725,421.617z"/>
	<path d="M372.586,259.339c-5.207,0-8.678-3.471-8.678-8.678c0-91.119-39.919-176.163-110.21-234.305c-0.868,0-1.736,0-2.603,0
		c-5.207,0-8.678-3.471-8.678-8.678S245.888-1,251.095-1c0.868,0,2.603,0,3.471,0h5.207l2.603,1.736
		c75.498,61.614,118.888,152.732,118.888,249.925C381.264,255.868,377.793,259.339,372.586,259.339z"/>
	<path d="M494.078,259.339H8.112c-5.207,0-8.678-3.471-8.678-8.678c0-5.207,3.471-8.678,8.678-8.678h485.966
		c5.207,0,8.678,3.471,8.678,8.678C502.756,255.868,499.285,259.339,494.078,259.339z"/>
	<path d="M251.095,502.322c-138.847,0-251.661-112.814-251.661-251.661S112.247-1,251.095-1s251.661,112.814,251.661,251.661
		c0,53.803-16.488,105.003-48.597,148.393l-7.81,10.414L390.81,314.01c-0.868-0.868-0.868-0.868-1.736-0.868l0,0
		c-0.868,0-0.868,0-1.736,0.868l-102.4,176.163v0.868l0.868,8.678l-8.678,0.868C268.451,502.322,259.773,502.322,251.095,502.322z
		 M277.129,485.834L277.129,485.834L277.129,485.834z M251.095,16.356c-129.302,0-234.305,105.003-234.305,234.305
		s105.003,234.305,234.305,234.305c6.075,0,11.281,0,17.356-0.868c0-0.868,0.868-1.736,0.868-2.603l103.268-176.163
		c3.471-6.075,9.546-9.546,16.488-9.546l0,0c6.942,0,13.017,3.471,16.488,9.546l41.654,72.027
		c25.166-37.315,38.183-81.573,38.183-126.698C485.4,121.359,380.397,16.356,251.095,16.356z"/>
</g>
<circle cx="390.942" cy="468.61" r="8.678"/>
</svg>